<?xml version="1.0" encoding="UTF-8" standalone="no"?>
<!-- Created with Inkscape (http://www.inkscape.org/) -->

<svg
   xmlns:dc="http://purl.org/dc/elements/1.1/"
   xmlns:cc="http://creativecommons.org/ns#"
   xmlns:rdf="http://www.w3.org/1999/02/22-rdf-syntax-ns#"
   xmlns:svg="http://www.w3.org/2000/svg"
   xmlns="http://www.w3.org/2000/svg"
   xmlns:sodipodi="http://sodipodi.sourceforge.net/DTD/sodipodi-0.dtd"
   xmlns:inkscape="http://www.inkscape.org/namespaces/inkscape"
   width="1024"
   height="1024"
   viewBox="0 0 1024 1024"
   id="svg2"
   version="1.1"
   inkscape:version="0.91 r13725"
   sodipodi:docname="GrassWide.svg"
   inkscape:export-filename="C:\Users\arlen\Documents\smash-and-grab\Assets\Textures\GrassWide.png"
   inkscape:export-xdpi="90"
   inkscape:export-ydpi="90">
  <defs
     id="defs4" />
  <sodipodi:namedview
     id="base"
     pagecolor="#ffffff"
     bordercolor="#666666"
     borderopacity="1.0"
     inkscape:pageopacity="0.0"
     inkscape:pageshadow="2"
     inkscape:zoom="0.54574139"
     inkscape:cx="471.71958"
     inkscape:cy="342.43316"
     inkscape:document-units="px"
     inkscape:current-layer="layer1"
     showgrid="false"
     units="px"
     showguides="true"
     inkscape:guide-bbox="true"
     inkscape:window-width="1920"
     inkscape:window-height="1027"
     inkscape:window-x="-8"
     inkscape:window-y="-8"
     inkscape:window-maximized="1">
    <sodipodi:guide
       position="-135.59536,512"
       orientation="0,1"
       id="guide4171"
       inkscape:label=""
       inkscape:color="rgb(0,0,255)" />
  </sodipodi:namedview>
  <metadata
     id="metadata7">
    <rdf:RDF>
      <cc:Work
         rdf:about="">
        <dc:format>image/svg+xml</dc:format>
        <dc:type
           rdf:resource="http://purl.org/dc/dcmitype/StillImage" />
        <dc:title></dc:title>
      </cc:Work>
    </rdf:RDF>
  </metadata>
  <g
     inkscape:label="Layer 1"
     inkscape:groupmode="layer"
     id="layer1"
     transform="translate(0,-28.362161)">
    <path
       style="fill:#36d200;fill-opacity:1;fill-rule:evenodd;stroke:none;stroke-width:1px;stroke-linecap:butt;stroke-linejoin:miter;stroke-opacity:1"
       d="m 208.54125,1073.5081 c 41.05257,-149.75021 55.07742,-267.94736 238.10473,-471.49071 -94.21264,228.02635 -114.94711,331.73409 -8.2105,484.83481 0,0 -168.31542,20.7574 -229.89423,-13.3441 z"
       id="path4136"
       inkscape:connector-curvature="0"
       sodipodi:nodetypes="cccc" />
    <path
       style="fill:#36d200;fill-opacity:1;fill-rule:evenodd;stroke:none;stroke-width:0.86229903px;stroke-linecap:butt;stroke-linejoin:miter;stroke-opacity:1"
       d="M 807.35501,1080.134 C 771.01917,954.33188 758.60567,855.03677 596.60726,684.04395 c 83.3881,191.56051 101.74028,278.68338 7.26716,407.30025 0,0 148.97684,17.4379 203.48059,-11.2102 z"
       id="path4136-4"
       inkscape:connector-curvature="0"
       sodipodi:nodetypes="cccc" />
    <path
       sodipodi:nodetypes="cccc"
       inkscape:connector-curvature="0"
       id="path4153"
       d="m 453.07157,1054.4935 c 21.70399,-159.71098 29.11874,-285.77014 125.88308,-502.85243 -49.80906,243.1938 -60.77116,353.79981 -4.34079,517.08413 0,0 -88.98632,22.1382 -121.54229,-14.2317 z"
       style="fill:#36d200;fill-opacity:1;fill-rule:evenodd;stroke:none;stroke-width:0.86229903px;stroke-linecap:butt;stroke-linejoin:miter;stroke-opacity:1" />
    <path
       sodipodi:nodetypes="cccc"
       inkscape:connector-curvature="0"
       id="path4155"
       d="M 188.83603,1070.4803 C 159.10832,931.58095 148.95239,821.94828 16.415364,633.15356 c 68.222968,211.5037 83.237557,307.69684 5.94554,449.70394 0,0 121.883566,19.2534 166.475126,-12.3772 z"
       style="fill:#36d200;fill-opacity:1;fill-rule:evenodd;stroke:none;stroke-width:1px;stroke-linecap:butt;stroke-linejoin:miter;stroke-opacity:1" />
    <path
       sodipodi:nodetypes="cccc"
       inkscape:connector-curvature="0"
       id="path4157"
       d="m 837.32336,1067.74 c 28.78203,-129.87118 38.61487,-232.37798 166.93564,-408.90153 -66.05264,197.75651 -80.58963,287.69736 -5.7564,420.47433 0,0 -118.00623,18.0019 -161.17924,-11.5728 z"
       style="fill:#36d200;fill-opacity:1;fill-rule:evenodd;stroke:none;stroke-width:0.86229903px;stroke-linecap:butt;stroke-linejoin:miter;stroke-opacity:1" />
    <path
       sodipodi:nodetypes="cccc"
       inkscape:connector-curvature="0"
       id="path4173"
       d="M 208.54125,8.73333 C 249.59382,158.48354 263.61867,276.68069 446.64598,480.224 352.43334,252.19769 331.69887,148.48995 438.43548,-4.61077 c 0,0 -168.31542,-20.7574 -229.89423,13.3441 z"
       style="fill:#36d200;fill-opacity:1;fill-rule:evenodd;stroke:none;stroke-width:1px;stroke-linecap:butt;stroke-linejoin:miter;stroke-opacity:1" />
    <path
       sodipodi:nodetypes="cccc"
       inkscape:connector-curvature="0"
       id="path4175"
       d="m 807.35501,2.10743 c -36.33584,125.80212 -48.74934,225.09723 -210.74775,396.09005 83.3881,-191.56051 101.74028,-278.68338 7.26716,-407.30025 0,0 148.97684,-17.4379 203.48059,11.2102 z"
       style="fill:#36d200;fill-opacity:1;fill-rule:evenodd;stroke:none;stroke-width:0.86229903px;stroke-linecap:butt;stroke-linejoin:miter;stroke-opacity:1" />
    <path
       style="fill:#36d200;fill-opacity:1;fill-rule:evenodd;stroke:none;stroke-width:0.86229903px;stroke-linecap:butt;stroke-linejoin:miter;stroke-opacity:1"
       d="m 453.07157,27.74793 c 21.70399,159.71098 29.11874,285.77014 125.88308,502.85247 -49.80906,-243.19384 -60.77116,-353.79985 -4.34079,-517.08417 0,0 -88.98632,-22.1382 -121.54229,14.2317 z"
       id="path4177"
       inkscape:connector-curvature="0"
       sodipodi:nodetypes="cccc" />
    <path
       style="fill:#36d200;fill-opacity:1;fill-rule:evenodd;stroke:none;stroke-width:1px;stroke-linecap:butt;stroke-linejoin:miter;stroke-opacity:1"
       d="M 188.83603,11.76113 C 159.10832,150.66048 148.95239,260.29315 16.415364,449.0879 84.638332,237.58417 99.652921,141.39103 22.360904,-0.61607 c 0,0 121.883566,-19.2534 166.475126,12.3772 z"
       id="path4179"
       inkscape:connector-curvature="0"
       sodipodi:nodetypes="cccc" />
    <path
       style="fill:#36d200;fill-opacity:1;fill-rule:evenodd;stroke:none;stroke-width:0.86229903px;stroke-linecap:butt;stroke-linejoin:miter;stroke-opacity:1"
       d="M 837.32336,14.50143 C 866.10539,144.37261 875.93823,246.87941 1004.259,423.40296 938.20636,225.64645 923.66937,135.7056 998.5026,2.92863 c 0,0 -118.00623,-18.0019 -161.17924,11.5728 z"
       id="path4181"
       inkscape:connector-curvature="0"
       sodipodi:nodetypes="cccc" />
  </g>
</svg>
